<?xml version="1.0" encoding="UTF-8" standalone="no"?>
<!-- Created with Inkscape (http://www.inkscape.org/) -->

<svg
   width="1200"
   height="720"
   viewBox="0 0 317.49999 190.50001"
   version="1.1"
   id="svg5"
   inkscape:version="1.1 (c68e22c387, 2021-05-23)"
   sodipodi:docname="Floating_Menu_Layout.svg"
   xmlns:inkscape="http://www.inkscape.org/namespaces/inkscape"
   xmlns:sodipodi="http://sodipodi.sourceforge.net/DTD/sodipodi-0.dtd"
   xmlns="http://www.w3.org/2000/svg"
   xmlns:svg="http://www.w3.org/2000/svg">
  <sodipodi:namedview
     id="namedview7"
     pagecolor="#505050"
     bordercolor="#eeeeee"
     borderopacity="1"
     inkscape:pageshadow="0"
     inkscape:pageopacity="0"
     inkscape:pagecheckerboard="0"
     inkscape:document-units="mm"
     showgrid="false"
     units="px"
     inkscape:snap-page="true"
     inkscape:zoom="1"
     inkscape:cx="629.5"
     inkscape:cy="339.5"
     inkscape:window-width="1920"
     inkscape:window-height="1009"
     inkscape:window-x="1912"
     inkscape:window-y="-8"
     inkscape:window-maximized="1"
     inkscape:current-layer="layer1" />
  <defs
     id="defs2" />
  <g
     inkscape:label="Layer 1"
     inkscape:groupmode="layer"
     id="layer1">
    <rect
       style="fill:#44475a;stroke-width:3.19197;stroke-linecap:round;fill-opacity:1"
       id="rect846"
       width="15.875"
       height="190.5"
       x="0"
       y="0" />
    <rect
       style="fill:#282a36;stroke-width:3;stroke-linecap:round;fill-opacity:1"
       id="rect1076"
       width="301.625"
       height="190.5"
       x="15.875"
       y="0"
       ry="0" />
    <path
       inkscape:export-ydpi="288.13419"
       inkscape:export-xdpi="288.13419"
       inkscape:export-filename="C:\Users\vfxon\Downloads\Preview_01.png"
       id="rect4"
       style="fill:#c3ccdf;fill-opacity:1;stroke-width:0.0149578"
       d="m 5.6684769,19.605756 v 0.529166 h 4.7625001 v -0.529166 z m 0,2.121834 v 0.529167 H 10.430977 V 21.72759 Z m 0,2.121834 v 0.529167 h 4.7625001 v -0.529167 z" />
    <rect
       style="fill:#4f5368;fill-opacity:1;stroke-width:3.97821;stroke-linecap:round"
       id="rect29803"
       width="15.915119"
       height="11.90625"
       x="0.092167355"
       y="27.945299"
       inkscape:export-filename="C:\Users\vfxon\Downloads\Preview_01.png"
       inkscape:export-xdpi="288.13419"
       inkscape:export-ydpi="288.13419" />
    <path
       inkscape:export-ydpi="288.13419"
       inkscape:export-xdpi="288.13419"
       inkscape:export-filename="C:\Users\vfxon\Downloads\Preview_01.png"
       id="path924"
       class="ci-primary"
       d="m 8.2055377,31.86243 c -0.13862,-0.110868 -0.3531332,-0.106982 -0.4863182,0.0088 -0.5915189,0.514215 -1.1829831,1.028471 -1.7745021,1.542685 -0.1158083,0.100686 -0.2097015,0.300754 -0.2097015,0.446879 v 1.889698 a 0.28933841,0.26458332 0 0 0 0.2893457,0.264584 h 1.2400125 a 0.28933841,0.26458332 0 0 0 0.2893457,-0.264584 v -1.018815 a 0.14466921,0.13229166 0 0 1 0.1446674,-0.132292 h 0.7026795 a 0.14466921,0.13229166 0 0 1 0.1446674,0.132292 v 1.018815 a 0.28933841,0.26458332 0 0 0 0.2893348,0.264584 h 1.2400231 a 0.28933841,0.26458332 0 0 0 0.289346,-0.264584 v -1.896721 c 0,-0.146126 -0.09755,-0.34258 -0.217772,-0.438789 C 9.49966,32.897427 8.8525768,32.379944 8.2055377,31.86243 Z m -0.2382216,0.301963 c 1.312e-4,-0.0016 1.312e-4,-0.0016 1.312e-4,-0.0016 z m 1.7131754,3.481366 H 9.2424647 A 0.28933841,0.26458332 0 0 1 8.9531299,35.381175 v -0.875328 c 0,-0.158767 -0.1480465,-0.287474 -0.3306714,-0.287474 H 7.4386332 c -0.1826249,0 -0.3306714,0.128707 -0.3306714,0.287474 v 0.875328 A 0.28933841,0.26458332 0 0 1 6.818627,35.645759 H 6.4445411 A 0.28933841,0.26458332 0 0 1 6.1551954,35.381175 V 34.073421 A 0.69363917,0.63429308 0 0 1 6.360807,33.622682 l 1.5038345,-1.361555 c 0.056756,-0.0514 0.1027949,-0.09339 0.1030136,-0.09339 l 1.7866738,1.464505 a 0.64791826,0.59248394 0 0 1 0.2154537,0.441184 v 1.307755 a 0.28933841,0.26458332 0 0 1 -0.2893348,0.264585 z"
       fill="var(--ci-primary-color, currentColor)"
       style="fill:#c3ccdf;fill-opacity:1;stroke-width:0.0096349"
       sodipodi:nodetypes="cccccccccccscsccssssccccccc" />
    <g
       id="g1592"
       transform="matrix(0.26458334,0,0,0.26458334,5.6684769,43.423422)"
       inkscape:export-filename="C:\Users\vfxon\Downloads\Preview_01.png"
       inkscape:export-xdpi="288.13419"
       inkscape:export-ydpi="288.13419">
      <g
         id="g6"
         transform="matrix(0.03674969,0,0,0.03674969,9.19e-7,-1.3853197e-5)"
         style="fill:#c3ccdf;fill-opacity:1">
        <g
           id="g4"
           style="fill:#c3ccdf;fill-opacity:1">
          <path
             d="m 489.8,280.92 c 0,-13.9 -11.3,-25.2 -25.2,-25.2 h -74.1 c -62.1,0 -112.4,50.2 -112.7,112.2 -0.1,32.3 -23,61 -55,65 -38.4,4.8 -71.2,-25.2 -71.2,-62.6 v -56.4 c 57.6,-11.7 101,-62.6 101,-123.7 v -64 c 0,-9.1 -7.3,-16.4 -16.4,-16.4 h -31.3 v -79.1 c 0,-12.4 -9,-23.4 -21.3,-24.6 -14.1,-1.4 -26,9.7 -26,23.6 v 80.1 H 95.2 v -79.1 c 0,-12.4 -9,-23.4 -21.4,-24.6 -14.1,-1.3 -26,9.7 -26,23.6 v 80.1 H 16.4 c -9.1,0 -16.4,7.3 -16.4,16.4 v 64 c 0,61.1 43.4,112 101,123.7 v 53.5 c 0,61.5 47.7,114 109.2,116.3 64.6,2.4 118,-49.4 118,-113.5 v -0.9 c 0,-34.9 28.3,-63.1 63.1,-63.1 h 73.2 c 14,-0.1 25.3,-11.4 25.3,-25.3 z"
             id="path2"
             style="fill:#c3ccdf;fill-opacity:1" />
        </g>
      </g>
      <g
         id="g8" />
      <g
         id="g10" />
      <g
         id="g12" />
      <g
         id="g14" />
      <g
         id="g16" />
      <g
         id="g18" />
      <g
         id="g20" />
      <g
         id="g22" />
      <g
         id="g24" />
      <g
         id="g26" />
      <g
         id="g28" />
      <g
         id="g30" />
      <g
         id="g32" />
      <g
         id="g34" />
      <g
         id="g36" />
    </g>
    <rect
       style="fill:#282a36;fill-opacity:1;stroke-width:1.14633;stroke-linecap:round"
       id="rect42661"
       width="1.3229167"
       height="11.892955"
       x="14.684369"
       y="27.945299"
       inkscape:export-filename="C:\Users\vfxon\Downloads\Preview_01.png"
       inkscape:export-xdpi="288.13419"
       inkscape:export-ydpi="288.13419" />
    <circle
       style="fill:#282a36;fill-opacity:1;stroke-width:2.77778;stroke-linecap:round"
       id="path1488"
       cx="7.9375"
       cy="7.9375"
       r="6.6145835" />
    <rect
       style="fill:#21232d;fill-opacity:1;stroke-width:0.596207;stroke-linecap:round"
       id="rect1408-9"
       width="301.625"
       height="7.9375"
       x="15.875"
       y="182.5625"
       inkscape:export-filename="C:\Users\vfxon\Downloads\Preview_01.png"
       inkscape:export-xdpi="288.13419"
       inkscape:export-ydpi="288.13419" />
    <path
       id="path872"
       style="fill:#c3ccdf;fill-opacity:1;stroke:#333333;stroke-width:0;stroke-linecap:round;stroke-miterlimit:4;stroke-dasharray:none"
       d="m 7.9397484,181.90125 c -0.09368,6.4e-4 -0.1872,0.006 -0.280163,0.0168 -0.145133,0.0165 -0.217836,0.13291 -0.21785,0.24943 -7e-6,0.28489 -0.230949,0.51584 -0.515833,0.51585 -0.115515,4e-5 -0.22483,-0.0385 -0.312959,-0.10564 -0.114923,-0.0876 -0.259497,-0.13974 -0.370701,-0.045 -0.129624,0.11039 -0.248294,0.23303 -0.354353,0.36622 -0.09098,0.11426 -0.0601,0.24801 0.02226,0.33038 0.201444,0.20146 0.201444,0.52807 0,0.72953 -0.08166,0.0816 -0.18615,0.13165 -0.295927,0.14643 -0.143214,0.0193 -0.282309,0.0846 -0.293998,0.23022 -0.0057,0.0704 -0.0085,0.14095 -0.0085,0.2116 1.4e-5,0.0997 0.0057,0.19924 0.01689,0.29816 0.01648,0.14513 0.132867,0.21787 0.249299,0.21786 0.284884,1e-5 0.515825,0.23096 0.515833,0.51585 -5e-6,0.11544 -0.0385,0.22468 -0.10563,0.31275 -0.0876,0.11493 -0.139734,0.25951 -0.04504,0.37072 0.110383,0.12962 0.233022,0.2483 0.366207,0.35436 0.114255,0.091 0.247995,0.0601 0.330364,-0.0222 0.09462,-0.0946 0.222301,-0.14876 0.356089,-0.151 0.139795,-0.002 0.274559,0.0521 0.373429,0.151 0.08163,0.0817 0.131644,0.18616 0.146424,0.29594 0.01928,0.14321 0.08462,0.28231 0.230214,0.29399 0.07041,0.006 0.141046,0.008 0.211749,0.008 0.09964,-1e-5 0.199124,-0.006 0.297986,-0.0169 0.145133,-0.0165 0.21787,-0.13286 0.217848,-0.2493 7e-6,-0.28489 0.230948,-0.51584 0.515832,-0.51585 0.115459,0 0.224713,0.0385 0.3128,0.10564 0.114923,0.0876 0.259497,0.13974 0.370702,0.045 0.129624,-0.11039 0.248293,-0.23303 0.3543516,-0.36622 0.09098,-0.11426 0.0601,-0.24801 -0.02226,-0.33038 -0.2014451,-0.20146 -0.2014451,-0.52807 0,-0.72953 0.09462,-0.0946 0.2223,-0.14876 0.356087,-0.151 0.112104,-0.002 0.222307,-0.08 0.233995,-0.22564 0.0057,-0.0704 0.0085,-0.14105 0.0085,-0.21176 -2.4e-5,-0.0996 -0.0057,-0.19914 -0.0169,-0.29801 -0.01648,-0.14513 -0.13294,-0.21784 -0.249459,-0.21786 -0.284884,-1e-5 -0.5158261,-0.23096 -0.5158331,-0.51585 -6e-6,-0.11546 0.03849,-0.22471 0.10563,-0.3128 0.0876,-0.11493 0.1397481,-0.25952 0.04506,-0.37074 -0.11039,-0.12967 -0.233043,-0.24838 -0.366248,-0.35448 -0.114247,-0.091 -0.247951,-0.06 -0.330353,0.0224 -0.201451,0.20146 -0.528065,0.20146 -0.729517,0 -0.08163,-0.0817 -0.131648,-0.18616 -0.146427,-0.29595 -0.01928,-0.14321 -0.08461,-0.28231 -0.23021,-0.29399 -0.07035,-0.006 -0.14094,-0.008 -0.21159,-0.008 -0.0059,-2e-5 -0.01188,-2e-5 -0.01782,0 z m 0.01782,1.78049 c 0.477854,1e-5 0.865231,0.38739 0.865237,0.86526 8.2e-5,0.47793 -0.38732,0.86541 -0.865237,0.86542 -0.477917,-1e-5 -0.865319,-0.38749 -0.865238,-0.86542 7e-6,-0.47787 0.387384,-0.86525 0.865238,-0.86526 z"
       inkscape:export-filename="C:\Users\vfxon\Downloads\Preview_01.png"
       inkscape:export-xdpi="288.13419"
       inkscape:export-ydpi="288.13419" />
    <text
       xml:space="preserve"
       style="font-size:3.175px;line-height:1.25;font-family:'Segoe UI';-inkscape-font-specification:'Segoe UI';fill:#6272a4;fill-opacity:1;stroke-width:0.264583"
       x="18.683132"
       y="187.58958"
       id="text7407"
       inkscape:export-filename="C:\Users\vfxon\Downloads\Preview_01.png"
       inkscape:export-xdpi="288.13419"
       inkscape:export-ydpi="288.13419"><tspan
         sodipodi:role="line"
         style="font-size:3.175px;fill:#6272a4;fill-opacity:1;stroke-width:0.264583"
         x="18.683132"
         y="187.58958"
         id="tspan3547">by: Wanderson M. Pimenta</tspan></text>
    <text
       xml:space="preserve"
       style="font-size:3.175px;line-height:1.25;font-family:'Segoe UI';-inkscape-font-specification:'Segoe UI';fill:#6272a4;fill-opacity:1;stroke-width:0.264583"
       x="303.60016"
       y="187.60587"
       id="text7407-6"
       inkscape:export-filename="C:\Users\vfxon\Downloads\Preview_01.png"
       inkscape:export-xdpi="288.13419"
       inkscape:export-ydpi="288.13419"><tspan
         sodipodi:role="line"
         id="tspan7405-7"
         style="font-size:3.175px;fill:#6272a4;fill-opacity:1;stroke-width:0.264583"
         x="303.60016"
         y="187.60587">© 2021</tspan></text>
    <text
       xml:space="preserve"
       style="font-size:5.64444px;line-height:1.25;font-family:'Segoe UI';-inkscape-font-specification:'Segoe UI';fill:#f8f8f2;fill-opacity:1;stroke-width:0.264583"
       x="144.95586"
       y="97.820038"
       id="text23928"
       inkscape:export-filename="C:\Users\vfxon\Downloads\Preview_01.png"
       inkscape:export-xdpi="288.13419"
       inkscape:export-ydpi="288.13419"><tspan
         sodipodi:role="line"
         id="tspan23926"
         style="font-style:normal;font-variant:normal;font-weight:bold;font-stretch:normal;font-size:5.64444px;font-family:'Segoe UI';-inkscape-font-specification:'Segoe UI Bold';fill:#f8f8f2;fill-opacity:1;stroke-width:0.264583"
         x="144.95586"
         y="97.820038">PÁGINA INICIAL</tspan></text>
    <g
       id="g32264">
      <g
         id="g10429">
        <path
           style="fill:#c3ccdf;fill-opacity:1;stroke:#000000;stroke-width:0;stroke-linecap:butt;stroke-linejoin:miter;stroke-miterlimit:4;stroke-dasharray:none;stroke-opacity:1"
           d="m 138.11249,182.38834 c 0,0 3.83157,-13.23636 22.64114,-16.71962 18.80956,-3.48325 24.58828,5.64262 39.18658,-2.96076 22.08727,-13.01693 40.47788,-0.84244 45.70276,-18.78119 5.22487,-17.93875 21.56627,-21.02991 31.84188,-20.33326 10.27559,0.69665 17.54816,0.79867 20.85725,-8.43195 3.30908,-9.23062 5.41284,-13.39242 10.24609,-16.293149 3.7062,-2.224315 8.91181,-2.168087 8.91181,-2.168087 v 0.696653 l -35.98333,70.348853 -136.78942,11.20806 z"
           id="path1975-9"
           sodipodi:nodetypes="cssssssccccc" />
        <path
           style="fill:#44475a;fill-opacity:1;stroke:#000000;stroke-width:0;stroke-linecap:butt;stroke-linejoin:miter;stroke-miterlimit:4;stroke-dasharray:none;stroke-opacity:1"
           d="m 138.11249,182.38834 c 0,0 4.00574,-11.32057 22.8153,-14.80383 18.80956,-3.48325 31.03231,5.81679 45.63061,-2.78659 22.08728,-13.01694 35.94965,-2.23574 41.17453,-20.17449 5.22488,-17.93875 22.43709,-18.41748 32.71269,-17.72083 10.27559,0.69665 16.67735,-1.81376 19.98644,-11.04438 3.30909,-9.23062 5.8124,-13.89587 8.95625,-16.22701 C 312.42996,97.375848 317.5,97.396977 317.5,97.396977 V 182.5625 Z"
           id="path1975"
           sodipodi:nodetypes="cssssssccc" />
      </g>
      <g
         aria-label="MODERNGUI"
         id="text11626"
         style="font-size:14.3348px;line-height:1.25;fill:#c3ccdf;stroke-width:0.179185">
        <path
           d="m 265.5604,172.94853 h 1.8922 l 0.75974,-6.56534 v 6.56534 h 1.9782 v -10.03436 h -2.90996 l -0.6164,6.07796 -0.57339,-6.07796 h -2.89563 v 10.03436 h 1.6055 v -6.63701 z"
           style="font-family:Tungsten;-inkscape-font-specification:Tungsten"
           id="path32192" />
        <path
           d="m 275.89577,171.17102 v -6.47933 c 0,-1.24713 -0.6164,-1.86353 -1.86352,-1.86353 h -1.29014 c -1.24712,0 -1.86352,0.6164 -1.86352,1.86353 v 6.47933 c 0,1.24712 0.6164,1.86352 1.86352,1.86352 h 1.29014 c 1.24712,0 1.86352,-0.6164 1.86352,-1.86352 z m -2.00687,-6.26431 v 6.04928 c 0,0.2437 -0.11468,0.35837 -0.35837,0.35837 h -0.2867 c -0.24369,0 -0.35837,-0.11467 -0.35837,-0.35837 v -6.04928 c 0,-0.24369 0.11468,-0.35837 0.35837,-0.35837 h 0.2867 c 0.24369,0 0.35837,0.11468 0.35837,0.35837 z"
           style="font-family:Tungsten;-inkscape-font-specification:Tungsten"
           id="path32194" />
        <path
           d="m 276.58384,172.94853 h 2.82395 c 1.44782,0 2.15022,-0.7024 2.15022,-2.15022 v -5.73392 c 0,-1.44781 -0.7024,-2.15022 -2.15022,-2.15022 h -2.82395 z m 2.00687,-8.31418 h 0.40137 c 0.38704,0 0.55906,0.17202 0.55906,0.55906 v 5.47589 c 0,0.38704 -0.17202,0.55906 -0.55906,0.55906 h -0.40137 z"
           style="font-family:Tungsten;-inkscape-font-specification:Tungsten"
           id="path32196" />
        <path
           d="m 282.24606,162.91417 v 10.03436 h 3.75572 v -1.79185 h -1.74884 v -2.40824 h 1.6485 v -1.79185 h -1.6485 v -2.25057 h 1.72017 v -1.79185 z"
           style="font-family:Tungsten;-inkscape-font-specification:Tungsten"
           id="path32198" />
        <path
           d="m 290.64624,168.20371 c 0.54473,-0.20068 0.86009,-0.63073 0.86009,-1.49082 v -1.93519 c 0,-1.24713 -0.61639,-1.86353 -1.86352,-1.86353 h -2.99597 v 10.03436 h 2.00687 v -3.79872 h 0.50172 c 0.24369,0 0.35837,0.11468 0.35837,0.35837 v 3.44035 h 2.00687 v -3.45468 c 0,-0.73108 -0.25803,-1.11812 -0.87443,-1.29014 z m -1.14678,-3.18232 v 2.06421 c 0,0.24369 -0.11468,0.35837 -0.35837,0.35837 h -0.48738 v -2.78095 h 0.48738 c 0.24369,0 0.35837,0.11468 0.35837,0.35837 z"
           style="font-family:Tungsten;-inkscape-font-specification:Tungsten"
           id="path32200" />
        <path
           d="m 297.09689,172.94853 v -10.03436 h -1.73451 l 0.0143,2.07855 0.0287,2.89563 -1.16112,-4.97418 h -2.04988 v 10.03436 h 1.73451 l -0.0287,-2.90996 -0.0287,-2.5516 1.2758,5.46156 z"
           style="font-family:Tungsten;-inkscape-font-specification:Tungsten"
           id="path32202" />
        <path
           d="m 301.33997,168.3614 v 3.05331 c 0,0.71674 -0.35837,1.08944 -1.10378,1.08944 h -0.41571 c -0.74541,0 -1.11811,-0.3727 -1.11811,-1.08944 V 164.448 c 0,-0.71674 0.3727,-1.08945 1.11811,-1.08945 h 0.41571 c 0.73107,0 1.08944,0.37271 1.08944,1.08945 v 1.60549 h 0.55906 v -1.59116 c 0,-1.06077 -0.54472,-1.61983 -1.63417,-1.61983 h -0.44437 c -1.10378,0 -1.66284,0.55906 -1.66284,1.61983 v 6.92371 c 0,1.07511 0.55906,1.63417 1.66284,1.63417 h 0.44437 c 1.08945,0 1.64851,-0.55906 1.64851,-1.63417 v -3.55503 h -1.90653 v 0.53039 z"
           style="font-weight:300;-inkscape-font-specification:'Tungsten Light'"
           id="path32204" />
        <path
           d="m 307.04522,162.91417 h -0.55906 v 8.47187 c 0,0.74541 -0.37271,1.10378 -1.13245,1.10378 h -0.34404 c -0.74541,0 -1.11811,-0.35837 -1.11811,-1.10378 v -8.47187 h -0.55906 v 8.45753 c 0,1.07511 0.55906,1.64851 1.66284,1.64851 h 0.3727 c 1.11812,0 1.67718,-0.5734 1.67718,-1.64851 z"
           style="font-weight:300;-inkscape-font-specification:'Tungsten Light'"
           id="path32206" />
        <path
           d="m 309.13808,162.91417 h -0.55905 v 10.03436 h 0.55905 z"
           style="font-weight:300;-inkscape-font-specification:'Tungsten Light'"
           id="path32208" />
      </g>
      <g
         aria-label="by: Wanderson M. Pimenta"
         id="text26691"
         style="font-size:3.84842px;line-height:1.25;fill:#c3ccdf;stroke-width:0.288631">
        <path
           d="m 265.05073,175.78599 c 0,-0.51954 -0.42332,-0.94286 -0.91977,-0.94286 -0.28478,0 -0.52339,0.13854 -0.67732,0.3579 v -1.43546 h -0.30788 v 2.88632 h 0.30788 v -0.28094 c 0.15393,0.21936 0.39254,0.3579 0.67732,0.3579 0.49645,0 0.91977,-0.42332 0.91977,-0.94286 z m -0.30787,0 c 0,0.3733 -0.28863,0.67347 -0.64269,0.67347 -0.35405,0 -0.64653,-0.30017 -0.64653,-0.67347 0,-0.3733 0.29248,-0.67347 0.64653,-0.67347 0.35406,0 0.64269,0.30017 0.64269,0.67347 z"
           style="font-family:'Ano Regular';-inkscape-font-specification:'Ano Regular, '"
           id="path32131" />
        <path
           d="m 266.80945,174.9201 -0.60035,1.36234 -0.60035,-1.36234 h -0.32712 l 0.76584,1.72794 -0.28094,0.63499 c -0.0577,0.13084 -0.15778,0.17702 -0.27324,0.17702 -0.0423,0 -0.16933,-0.0154 -0.27708,-0.0808 v 0.28093 c 0.0924,0.0539 0.24245,0.0693 0.30017,0.0693 0.22321,0 0.43103,-0.1116 0.53493,-0.3502 l 1.08526,-2.45914 z"
           style="font-family:'Ano Regular';-inkscape-font-specification:'Ano Regular, '"
           id="path32133" />
        <path
           d="m 267.7908,174.9201 h -0.30788 v 0.46181 h 0.30788 z m 0,1.26998 h -0.30788 v 0.46181 h 0.30788 z"
           style="font-family:'Ano Regular';-inkscape-font-specification:'Ano Regular, '"
           id="path32135" />
        <path
           d="m 272.4012,173.76557 -0.72351,2.4399 -0.73504,-2.4399 h -0.30018 l -0.73505,2.4399 -0.7235,-2.4399 h -0.31557 l 0.88513,2.88632 h 0.30403 l 0.73505,-2.45145 0.73505,2.45145 h 0.30402 l 0.88514,-2.88632 z"
           style="font-family:'Ano Regular';-inkscape-font-specification:'Ano Regular, '"
           id="path32137" />
        <path
           d="m 274.69099,174.9201 h -0.30787 v 0.28093 c -0.15394,-0.21936 -0.39254,-0.3579 -0.67732,-0.3579 -0.49645,0 -0.91977,0.42332 -0.91977,0.94286 0,0.51954 0.42332,0.94286 0.91977,0.94286 0.28478,0 0.52338,-0.13854 0.67732,-0.3579 v 0.28094 h 0.30787 z m -0.30787,0.86589 c 0,0.3733 -0.29248,0.67347 -0.64653,0.67347 -0.35406,0 -0.64269,-0.30017 -0.64269,-0.67347 0,-0.3733 0.28863,-0.67347 0.64269,-0.67347 0.35405,0 0.64653,0.30017 0.64653,0.67347 z"
           style="font-family:'Ano Regular';-inkscape-font-specification:'Ano Regular, '"
           id="path32139" />
        <path
           d="m 276.88459,175.55509 c 0,-0.45797 -0.36176,-0.71196 -0.71966,-0.71196 -0.21166,0 -0.42332,0.0924 -0.55032,0.28478 v -0.20781 h -0.30788 v 1.73179 h 0.30788 v -1.04677 c 0,-0.26939 0.21936,-0.49645 0.50029,-0.49645 0.26554,0 0.46181,0.18472 0.46181,0.44642 v 1.0968 h 0.30788 z"
           style="font-family:'Ano Regular';-inkscape-font-specification:'Ano Regular, '"
           id="path32141" />
        <path
           d="m 279.28985,173.76557 h -0.30788 v 1.43546 c -0.15393,-0.21936 -0.39254,-0.3579 -0.67732,-0.3579 -0.49644,0 -0.91977,0.42332 -0.91977,0.94286 0,0.51954 0.42333,0.94286 0.91977,0.94286 0.28478,0 0.52339,-0.13854 0.67732,-0.3579 v 0.28094 h 0.30788 z m -0.30788,2.02042 c 0,0.3733 -0.29248,0.67347 -0.64653,0.67347 -0.35406,0 -0.64269,-0.30017 -0.64269,-0.67347 0,-0.3733 0.28863,-0.67347 0.64269,-0.67347 0.35405,0 0.64653,0.30017 0.64653,0.67347 z"
           style="font-family:'Ano Regular';-inkscape-font-specification:'Ano Regular, '"
           id="path32143" />
        <path
           d="m 281.67586,175.78599 c 0,-0.51954 -0.42333,-0.94286 -0.94286,-0.94286 -0.51954,0 -0.94287,0.42332 -0.94287,0.94286 0,0.51954 0.42333,0.94286 0.94287,0.94286 0.33481,0 0.63114,-0.17702 0.81201,-0.47335 l -0.24245,-0.14239 c -0.12699,0.22321 -0.33866,0.3579 -0.56956,0.3579 -0.33097,0 -0.58496,-0.254 -0.64654,-0.55032 h 1.5817 c 0.004,-0.0808 0.008,-0.10776 0.008,-0.1347 z m -1.5894,-0.13084 c 0.0616,-0.30018 0.31557,-0.55418 0.64654,-0.55418 0.31557,0 0.58111,0.24245 0.64268,0.55418 z"
           style="font-family:'Ano Regular';-inkscape-font-specification:'Ano Regular, '"
           id="path32145" />
        <path
           d="m 283.12671,174.85467 c -0.0269,-0.004 -0.0693,-0.0115 -0.0962,-0.0115 -0.22706,0 -0.42718,0.0885 -0.55033,0.27324 v -0.19627 h -0.30787 v 1.73179 h 0.30787 v -1.04677 c 0,-0.26939 0.21936,-0.4926 0.5003,-0.4926 0.0462,0 0.10776,0.008 0.14624,0.0192 z"
           style="font-family:'Ano Regular';-inkscape-font-specification:'Ano Regular, '"
           id="path32147" />
        <path
           d="m 284.82001,176.17853 c 0,-0.33481 -0.24245,-0.44642 -0.51953,-0.50799 l -0.32712,-0.0731 c -0.1116,-0.0231 -0.17318,-0.1347 -0.17318,-0.21936 0,-0.17703 0.15394,-0.27709 0.33097,-0.27709 0.15393,0 0.32711,0.0808 0.40793,0.26939 l 0.26554,-0.10391 c -0.0808,-0.28093 -0.38099,-0.42332 -0.67347,-0.42332 -0.31942,0 -0.6273,0.17318 -0.6273,0.53493 0,0.30018 0.19242,0.44257 0.44642,0.49645 l 0.32327,0.0731 c 0.17318,0.0385 0.24245,0.12314 0.24245,0.2232 0,0.20012 -0.18473,0.30018 -0.37715,0.30018 -0.18857,0 -0.3502,-0.0693 -0.43872,-0.27324 l -0.26554,0.10391 c 0.0847,0.28093 0.40409,0.42717 0.71581,0.42717 0.33866,0 0.66962,-0.17702 0.66962,-0.55032 z"
           style="font-family:'Ano Regular';-inkscape-font-specification:'Ano Regular, '"
           id="path32149" />
        <path
           d="m 287.09058,175.78599 c 0,-0.51954 -0.42333,-0.94286 -0.94286,-0.94286 -0.51954,0 -0.94287,0.42332 -0.94287,0.94286 0,0.51954 0.42333,0.94286 0.94287,0.94286 0.51953,0 0.94286,-0.42332 0.94286,-0.94286 z m -0.30787,0 c 0,0.3733 -0.28479,0.67347 -0.63499,0.67347 -0.35021,0 -0.63499,-0.30017 -0.63499,-0.67347 0,-0.3733 0.28478,-0.67347 0.63499,-0.67347 0.3502,0 0.63499,0.30017 0.63499,0.67347 z"
           style="font-family:'Ano Regular';-inkscape-font-specification:'Ano Regular, '"
           id="path32151" />
        <path
           d="m 289.16872,175.55509 c 0,-0.45797 -0.36175,-0.71196 -0.71966,-0.71196 -0.21166,0 -0.42332,0.0924 -0.55032,0.28478 v -0.20781 h -0.30787 v 1.73179 h 0.30787 v -1.04677 c 0,-0.26939 0.21936,-0.49645 0.5003,-0.49645 0.26554,0 0.46181,0.18472 0.46181,0.44642 v 1.0968 h 0.30787 z"
           style="font-family:'Ano Regular';-inkscape-font-specification:'Ano Regular, '"
           id="path32153" />
        <path
           d="m 293.24804,173.76557 h -0.30787 l -1.03908,1.64712 -1.03907,-1.64712 h -0.30788 v 2.88632 h 0.30788 v -2.36678 l 0.88513,1.40467 h 0.30788 l 0.88514,-1.40467 v 2.36678 h 0.30787 z"
           style="font-family:'Ano Regular';-inkscape-font-specification:'Ano Regular, '"
           id="path32155" />
        <path
           d="m 294.17165,176.19008 h -0.30787 v 0.46181 h 0.30787 z"
           style="font-family:'Ano Regular';-inkscape-font-specification:'Ano Regular, '"
           id="path32157" />
        <path
           d="m 297.3466,174.5545 c 0,-0.43487 -0.35406,-0.78893 -0.78893,-0.78893 h -1.00059 v 2.88632 h 0.30787 v -1.30847 h 0.69272 c 0.43487,0 0.78893,-0.35405 0.78893,-0.78892 z m -0.30788,0 c 0,0.28863 -0.19242,0.51953 -0.48105,0.51953 h -0.69272 v -1.03907 h 0.69272 c 0.28863,0 0.48105,0.23091 0.48105,0.51954 z"
           style="font-family:'Ano Regular';-inkscape-font-specification:'Ano Regular, '"
           id="path32159" />
        <path
           d="m 298.11627,173.76557 h -0.30787 v 0.46181 h 0.30787 z m 0,1.15453 h -0.30787 v 1.73179 h 0.30787 z"
           style="font-family:'Ano Regular';-inkscape-font-specification:'Ano Regular, '"
           id="path32161" />
        <path
           d="m 301.09495,175.45503 c 0,-0.40409 -0.32327,-0.6119 -0.63114,-0.6119 -0.19627,0 -0.39639,0.0731 -0.51954,0.2463 -0.0731,-0.14624 -0.26938,-0.2463 -0.46181,-0.2463 -0.19242,0 -0.3579,0.10391 -0.44256,0.26169 v -0.18472 h -0.30788 v 1.73179 h 0.30788 v -1.16223 c 0,-0.26169 0.18857,-0.37714 0.38484,-0.37714 0.17318,0 0.33481,0.10775 0.33481,0.35405 v 1.18532 h 0.30787 v -1.16223 c 0,-0.26169 0.18858,-0.37714 0.38485,-0.37714 0.17317,0 0.33481,0.127 0.33481,0.37329 v 1.16608 h 0.30787 z"
           style="font-family:'Ano Regular';-inkscape-font-specification:'Ano Regular, '"
           id="path32163" />
        <path
           d="m 303.48096,175.78599 c 0,-0.51954 -0.42332,-0.94286 -0.94286,-0.94286 -0.51954,0 -0.94286,0.42332 -0.94286,0.94286 0,0.51954 0.42332,0.94286 0.94286,0.94286 0.33481,0 0.63114,-0.17702 0.81202,-0.47335 l -0.24245,-0.14239 c -0.127,0.22321 -0.33866,0.3579 -0.56957,0.3579 -0.33096,0 -0.58496,-0.254 -0.64653,-0.55032 h 1.5817 c 0.004,-0.0808 0.008,-0.10776 0.008,-0.1347 z m -1.58939,-0.13084 c 0.0616,-0.30018 0.31557,-0.55418 0.64653,-0.55418 0.31557,0 0.58111,0.24245 0.64269,0.55418 z"
           style="font-family:'Ano Regular';-inkscape-font-specification:'Ano Regular, '"
           id="path32165" />
        <path
           d="m 305.55526,175.55509 c 0,-0.45797 -0.36175,-0.71196 -0.71966,-0.71196 -0.21166,0 -0.42332,0.0924 -0.55032,0.28478 v -0.20781 h -0.30787 v 1.73179 h 0.30787 v -1.04677 c 0,-0.26939 0.21936,-0.49645 0.50029,-0.49645 0.26555,0 0.46181,0.18472 0.46181,0.44642 v 1.0968 h 0.30788 z"
           style="font-family:'Ano Regular';-inkscape-font-specification:'Ano Regular, '"
           id="path32167" />
        <path
           d="m 306.94069,174.9201 h -0.30787 v -1.15453 h -0.30788 v 1.15453 h -0.30787 v 0.26939 h 0.30787 v 1.4624 h 0.30788 v -1.4624 h 0.30787 z"
           style="font-family:'Ano Regular';-inkscape-font-specification:'Ano Regular, '"
           id="path32169" />
        <path
           d="m 309.19201,174.9201 h -0.30787 v 0.28093 c -0.15394,-0.21936 -0.39254,-0.3579 -0.67732,-0.3579 -0.49645,0 -0.91978,0.42332 -0.91978,0.94286 0,0.51954 0.42333,0.94286 0.91978,0.94286 0.28478,0 0.52338,-0.13854 0.67732,-0.3579 v 0.28094 h 0.30787 z m -0.30787,0.86589 c 0,0.3733 -0.29248,0.67347 -0.64654,0.67347 -0.35405,0 -0.64268,-0.30017 -0.64268,-0.67347 0,-0.3733 0.28863,-0.67347 0.64268,-0.67347 0.35406,0 0.64654,0.30017 0.64654,0.67347 z"
           style="font-family:'Ano Regular';-inkscape-font-specification:'Ano Regular, '"
           id="path32171" />
      </g>
    </g>
  </g>
</svg>
